<mxfile host="app.diagrams.net" modified="2021-08-15T14:50:26.350Z" agent="5.0 (Windows NT 10.0; Win64; x64) AppleWebKit/537.36 (KHTML, like Gecko) Chrome/92.0.4515.131 Safari/537.36" etag="mpKdFtOXfw2YszcdzeHN" version="14.9.6" type="github">
  <diagram id="nmTU_aJpAPaJv6kTjVSL" name="Page-1">
    <mxGraphModel dx="1038" dy="579" grid="1" gridSize="10" guides="1" tooltips="1" connect="1" arrows="1" fold="1" page="1" pageScale="1" pageWidth="827" pageHeight="1169" math="0" shadow="0">
      <root>
        <mxCell id="0" />
        <mxCell id="1" parent="0" />
        <mxCell id="MD_AzahWhz3icd9ftFgT-2" value="" style="html=1;verticalAlign=bottom;startArrow=circle;startFill=1;endArrow=open;startSize=6;endSize=8;" edge="1" parent="1">
          <mxGeometry x="35" y="10" width="80" as="geometry">
            <mxPoint x="90" y="30" as="sourcePoint" />
            <mxPoint x="90" y="70" as="targetPoint" />
          </mxGeometry>
        </mxCell>
        <mxCell id="MD_AzahWhz3icd9ftFgT-3" value="Register" style="ellipse;whiteSpace=wrap;html=1;" vertex="1" parent="1">
          <mxGeometry x="50" y="70" width="80" height="40" as="geometry" />
        </mxCell>
        <mxCell id="MD_AzahWhz3icd9ftFgT-4" value="" style="endArrow=classic;html=1;" edge="1" parent="1">
          <mxGeometry x="35" y="10" width="50" height="50" as="geometry">
            <mxPoint x="93" y="111" as="sourcePoint" />
            <mxPoint x="93" y="128" as="targetPoint" />
          </mxGeometry>
        </mxCell>
        <mxCell id="MD_AzahWhz3icd9ftFgT-5" value="Enter Registration Info" style="ellipse;whiteSpace=wrap;html=1;" vertex="1" parent="1">
          <mxGeometry x="35" y="130" width="125" height="30" as="geometry" />
        </mxCell>
        <mxCell id="MD_AzahWhz3icd9ftFgT-6" value="" style="shape=line;html=1;strokeWidth=6;rotation=-90;" vertex="1" parent="1">
          <mxGeometry x="102" y="117" width="164" height="10" as="geometry" />
        </mxCell>
        <mxCell id="MD_AzahWhz3icd9ftFgT-7" value="" style="endArrow=classic;html=1;" edge="1" parent="1">
          <mxGeometry x="35" y="10" width="50" height="50" as="geometry">
            <mxPoint x="160" y="144.5" as="sourcePoint" />
            <mxPoint x="180" y="144.5" as="targetPoint" />
          </mxGeometry>
        </mxCell>
        <mxCell id="MD_AzahWhz3icd9ftFgT-8" value="" style="endArrow=classic;html=1;" edge="1" parent="1">
          <mxGeometry x="35" y="10" width="50" height="50" as="geometry">
            <mxPoint x="184" y="43" as="sourcePoint" />
            <mxPoint x="204" y="43" as="targetPoint" />
          </mxGeometry>
        </mxCell>
        <mxCell id="MD_AzahWhz3icd9ftFgT-9" value="" style="endArrow=classic;html=1;" edge="1" parent="1">
          <mxGeometry x="35" y="10" width="50" height="50" as="geometry">
            <mxPoint x="185" y="80" as="sourcePoint" />
            <mxPoint x="205" y="80" as="targetPoint" />
          </mxGeometry>
        </mxCell>
        <mxCell id="MD_AzahWhz3icd9ftFgT-10" value="" style="endArrow=classic;html=1;" edge="1" parent="1">
          <mxGeometry x="35" y="10" width="50" height="50" as="geometry">
            <mxPoint x="185" y="120" as="sourcePoint" />
            <mxPoint x="205" y="120" as="targetPoint" />
          </mxGeometry>
        </mxCell>
        <mxCell id="MD_AzahWhz3icd9ftFgT-11" value="" style="endArrow=classic;html=1;" edge="1" parent="1">
          <mxGeometry x="35" y="10" width="50" height="50" as="geometry">
            <mxPoint x="186" y="160" as="sourcePoint" />
            <mxPoint x="206" y="160" as="targetPoint" />
          </mxGeometry>
        </mxCell>
        <mxCell id="MD_AzahWhz3icd9ftFgT-12" value="" style="endArrow=classic;html=1;" edge="1" parent="1">
          <mxGeometry x="35" y="10" width="50" height="50" as="geometry">
            <mxPoint x="187" y="200" as="sourcePoint" />
            <mxPoint x="207" y="200" as="targetPoint" />
          </mxGeometry>
        </mxCell>
        <mxCell id="MD_AzahWhz3icd9ftFgT-13" value="Name" style="ellipse;whiteSpace=wrap;html=1;" vertex="1" parent="1">
          <mxGeometry x="204" y="31" width="56" height="23" as="geometry" />
        </mxCell>
        <mxCell id="MD_AzahWhz3icd9ftFgT-14" value="Email" style="ellipse;whiteSpace=wrap;html=1;" vertex="1" parent="1">
          <mxGeometry x="204" y="70" width="56" height="23" as="geometry" />
        </mxCell>
        <mxCell id="MD_AzahWhz3icd9ftFgT-15" value="Phone" style="ellipse;whiteSpace=wrap;html=1;" vertex="1" parent="1">
          <mxGeometry x="204" y="107" width="56" height="23" as="geometry" />
        </mxCell>
        <mxCell id="MD_AzahWhz3icd9ftFgT-16" value="Address" style="ellipse;whiteSpace=wrap;html=1;" vertex="1" parent="1">
          <mxGeometry x="204" y="150" width="56" height="23" as="geometry" />
        </mxCell>
        <mxCell id="MD_AzahWhz3icd9ftFgT-17" value="Password" style="ellipse;whiteSpace=wrap;html=1;" vertex="1" parent="1">
          <mxGeometry x="204" y="190" width="56" height="23" as="geometry" />
        </mxCell>
        <mxCell id="MD_AzahWhz3icd9ftFgT-18" value="" style="endArrow=classic;html=1;" edge="1" parent="1">
          <mxGeometry x="35" y="10" width="50" height="50" as="geometry">
            <mxPoint x="260" y="42" as="sourcePoint" />
            <mxPoint x="280" y="42" as="targetPoint" />
          </mxGeometry>
        </mxCell>
        <mxCell id="MD_AzahWhz3icd9ftFgT-19" value="" style="endArrow=classic;html=1;" edge="1" parent="1">
          <mxGeometry x="35" y="10" width="50" height="50" as="geometry">
            <mxPoint x="260" y="81" as="sourcePoint" />
            <mxPoint x="280" y="81" as="targetPoint" />
          </mxGeometry>
        </mxCell>
        <mxCell id="MD_AzahWhz3icd9ftFgT-20" value="" style="endArrow=classic;html=1;" edge="1" parent="1">
          <mxGeometry x="35" y="10" width="50" height="50" as="geometry">
            <mxPoint x="260" y="121.5" as="sourcePoint" />
            <mxPoint x="280" y="121.5" as="targetPoint" />
          </mxGeometry>
        </mxCell>
        <mxCell id="MD_AzahWhz3icd9ftFgT-21" value="" style="endArrow=classic;html=1;" edge="1" parent="1">
          <mxGeometry x="35" y="10" width="50" height="50" as="geometry">
            <mxPoint x="260" y="161" as="sourcePoint" />
            <mxPoint x="280" y="161" as="targetPoint" />
          </mxGeometry>
        </mxCell>
        <mxCell id="MD_AzahWhz3icd9ftFgT-22" value="" style="endArrow=classic;html=1;" edge="1" parent="1">
          <mxGeometry x="35" y="10" width="50" height="50" as="geometry">
            <mxPoint x="260" y="201" as="sourcePoint" />
            <mxPoint x="280" y="201" as="targetPoint" />
          </mxGeometry>
        </mxCell>
        <mxCell id="MD_AzahWhz3icd9ftFgT-23" value="" style="shape=line;html=1;strokeWidth=6;rotation=-90;" vertex="1" parent="1">
          <mxGeometry x="204" y="117" width="164" height="10" as="geometry" />
        </mxCell>
        <mxCell id="MD_AzahWhz3icd9ftFgT-24" value="" style="endArrow=classic;html=1;" edge="1" parent="1">
          <mxGeometry x="35" y="10" width="50" height="50" as="geometry">
            <mxPoint x="286" y="120" as="sourcePoint" />
            <mxPoint x="306" y="120" as="targetPoint" />
          </mxGeometry>
        </mxCell>
        <mxCell id="MD_AzahWhz3icd9ftFgT-25" value="Enter Submit" style="ellipse;whiteSpace=wrap;html=1;" vertex="1" parent="1">
          <mxGeometry x="306" y="103.5" width="54" height="31.5" as="geometry" />
        </mxCell>
        <mxCell id="MD_AzahWhz3icd9ftFgT-26" value="" style="endArrow=classic;html=1;" edge="1" parent="1">
          <mxGeometry x="35" y="10" width="50" height="50" as="geometry">
            <mxPoint x="332.5" y="135" as="sourcePoint" />
            <mxPoint x="332.5" y="215" as="targetPoint" />
          </mxGeometry>
        </mxCell>
        <mxCell id="MD_AzahWhz3icd9ftFgT-27" value="Get Massage Registration Done" style="ellipse;whiteSpace=wrap;html=1;" vertex="1" parent="1">
          <mxGeometry x="281.5" y="213" width="103" height="40" as="geometry" />
        </mxCell>
        <mxCell id="MD_AzahWhz3icd9ftFgT-28" value="" style="endArrow=classic;html=1;" edge="1" parent="1">
          <mxGeometry x="35" y="10" width="50" height="50" as="geometry">
            <mxPoint x="280" y="237" as="sourcePoint" />
            <mxPoint x="260" y="237" as="targetPoint" />
          </mxGeometry>
        </mxCell>
        <mxCell id="MD_AzahWhz3icd9ftFgT-29" value="Click at Login" style="ellipse;whiteSpace=wrap;html=1;" vertex="1" parent="1">
          <mxGeometry x="207" y="221.25" width="54" height="31.5" as="geometry" />
        </mxCell>
        <mxCell id="MD_AzahWhz3icd9ftFgT-30" value="" style="endArrow=classic;html=1;" edge="1" parent="1">
          <mxGeometry x="35" y="10" width="50" height="50" as="geometry">
            <mxPoint x="207" y="236.5" as="sourcePoint" />
            <mxPoint x="187" y="236.5" as="targetPoint" />
          </mxGeometry>
        </mxCell>
        <mxCell id="MD_AzahWhz3icd9ftFgT-31" value="" style="shape=line;html=1;strokeWidth=6;rotation=-90;" vertex="1" parent="1">
          <mxGeometry x="154.25" y="236.25" width="61.5" height="10" as="geometry" />
        </mxCell>
        <mxCell id="MD_AzahWhz3icd9ftFgT-32" value="" style="endArrow=classic;html=1;" edge="1" parent="1">
          <mxGeometry x="35" y="10" width="50" height="50" as="geometry">
            <mxPoint x="183.25" y="213" as="sourcePoint" />
            <mxPoint x="163.25" y="213" as="targetPoint" />
          </mxGeometry>
        </mxCell>
        <mxCell id="MD_AzahWhz3icd9ftFgT-33" value="" style="endArrow=classic;html=1;" edge="1" parent="1">
          <mxGeometry x="35" y="10" width="50" height="50" as="geometry">
            <mxPoint x="184" y="267" as="sourcePoint" />
            <mxPoint x="164" y="267" as="targetPoint" />
          </mxGeometry>
        </mxCell>
        <mxCell id="MD_AzahWhz3icd9ftFgT-34" value="Enter Email" style="ellipse;whiteSpace=wrap;html=1;" vertex="1" parent="1">
          <mxGeometry x="112" y="199" width="54" height="31.5" as="geometry" />
        </mxCell>
        <mxCell id="MD_AzahWhz3icd9ftFgT-35" value="Enter Password" style="ellipse;whiteSpace=wrap;html=1;" vertex="1" parent="1">
          <mxGeometry x="100" y="250" width="66" height="33.25" as="geometry" />
        </mxCell>
        <mxCell id="MD_AzahWhz3icd9ftFgT-36" value="" style="shape=line;html=1;strokeWidth=6;rotation=-90;" vertex="1" parent="1">
          <mxGeometry x="47" y="238" width="66" height="10" as="geometry" />
        </mxCell>
        <mxCell id="MD_AzahWhz3icd9ftFgT-37" value="" style="endArrow=classic;html=1;" edge="1" parent="1">
          <mxGeometry x="35" y="10" width="50" height="50" as="geometry">
            <mxPoint x="112" y="214.25" as="sourcePoint" />
            <mxPoint x="80" y="214" as="targetPoint" />
          </mxGeometry>
        </mxCell>
        <mxCell id="MD_AzahWhz3icd9ftFgT-38" value="" style="endArrow=classic;html=1;" edge="1" parent="1">
          <mxGeometry x="35" y="10" width="50" height="50" as="geometry">
            <mxPoint x="102" y="266.13" as="sourcePoint" />
            <mxPoint x="82" y="266.13" as="targetPoint" />
          </mxGeometry>
        </mxCell>
        <mxCell id="MD_AzahWhz3icd9ftFgT-39" value="" style="endArrow=open;endFill=1;endSize=12;html=1;exitX=0.548;exitY=0.3;exitDx=0;exitDy=0;exitPerimeter=0;entryX=0;entryY=0.5;entryDx=0;entryDy=0;" edge="1" parent="1" source="MD_AzahWhz3icd9ftFgT-36" target="MD_AzahWhz3icd9ftFgT-41">
          <mxGeometry x="35" y="10" width="160" as="geometry">
            <mxPoint x="330" y="170" as="sourcePoint" />
            <mxPoint x="490" y="290" as="targetPoint" />
            <Array as="points">
              <mxPoint x="40" y="240" />
              <mxPoint x="40" y="290" />
            </Array>
          </mxGeometry>
        </mxCell>
        <mxCell id="MD_AzahWhz3icd9ftFgT-40" value="&lt;font color=&quot;#ff5b14&quot;&gt;SYSTEM&lt;/font&gt;" style="text;html=1;align=center;verticalAlign=middle;resizable=0;points=[];autosize=1;strokeColor=none;" vertex="1" parent="1">
          <mxGeometry x="685" y="10" width="70" height="20" as="geometry" />
        </mxCell>
        <mxCell id="MD_AzahWhz3icd9ftFgT-41" value="Is Valid" style="rhombus;whiteSpace=wrap;html=1;strokeColor=#000000;" vertex="1" parent="1">
          <mxGeometry x="548" y="260" width="50" height="50" as="geometry" />
        </mxCell>
        <mxCell id="MD_AzahWhz3icd9ftFgT-42" value="" style="endArrow=classic;html=1;exitX=0.5;exitY=1;exitDx=0;exitDy=0;entryX=1;entryY=1;entryDx=0;entryDy=0;" edge="1" parent="1" source="MD_AzahWhz3icd9ftFgT-41" target="MD_AzahWhz3icd9ftFgT-44">
          <mxGeometry x="-93" y="11" width="50" height="50" as="geometry">
            <mxPoint x="618" y="320" as="sourcePoint" />
            <mxPoint x="548" y="330" as="targetPoint" />
            <Array as="points">
              <mxPoint x="573" y="330" />
            </Array>
          </mxGeometry>
        </mxCell>
        <mxCell id="MD_AzahWhz3icd9ftFgT-44" value="See Login Failed Massage" style="ellipse;whiteSpace=wrap;html=1;" vertex="1" parent="1">
          <mxGeometry x="450" y="301" width="88" height="37" as="geometry" />
        </mxCell>
        <mxCell id="MD_AzahWhz3icd9ftFgT-45" value="" style="endArrow=classic;html=1;" edge="1" parent="1">
          <mxGeometry x="-105" y="0.5" width="50" height="50" as="geometry">
            <mxPoint x="450" y="320.5" as="sourcePoint" />
            <mxPoint x="430" y="320.5" as="targetPoint" />
          </mxGeometry>
        </mxCell>
        <mxCell id="MD_AzahWhz3icd9ftFgT-46" value="Input Info Again" style="ellipse;whiteSpace=wrap;html=1;" vertex="1" parent="1">
          <mxGeometry x="360" y="301" width="70" height="40" as="geometry" />
        </mxCell>
        <mxCell id="MD_AzahWhz3icd9ftFgT-47" value="" style="endArrow=classic;html=1;entryX=0.5;entryY=1;entryDx=0;entryDy=0;" edge="1" parent="1" target="MD_AzahWhz3icd9ftFgT-29">
          <mxGeometry x="35" y="10" width="50" height="50" as="geometry">
            <mxPoint x="360" y="330" as="sourcePoint" />
            <mxPoint x="440" y="140" as="targetPoint" />
            <Array as="points">
              <mxPoint x="234" y="330" />
            </Array>
          </mxGeometry>
        </mxCell>
        <mxCell id="MD_AzahWhz3icd9ftFgT-48" value="" style="endArrow=classic;html=1;exitX=1;exitY=0.5;exitDx=0;exitDy=0;" edge="1" parent="1" source="MD_AzahWhz3icd9ftFgT-41">
          <mxGeometry x="35" y="10" width="50" height="50" as="geometry">
            <mxPoint x="390" y="290" as="sourcePoint" />
            <mxPoint x="520" y="360" as="targetPoint" />
            <Array as="points">
              <mxPoint x="620" y="285" />
              <mxPoint x="620" y="360" />
            </Array>
          </mxGeometry>
        </mxCell>
        <mxCell id="MD_AzahWhz3icd9ftFgT-50" value="" style="shape=line;html=1;strokeWidth=6;rotation=0;" vertex="1" parent="1">
          <mxGeometry x="40" y="380" width="500" height="10" as="geometry" />
        </mxCell>
        <mxCell id="MD_AzahWhz3icd9ftFgT-51" value="Go to Dashboard" style="ellipse;whiteSpace=wrap;html=1;" vertex="1" parent="1">
          <mxGeometry x="450" y="340" width="70" height="40" as="geometry" />
        </mxCell>
        <mxCell id="MD_AzahWhz3icd9ftFgT-52" value="" style="endArrow=classic;html=1;exitX=0;exitY=0.5;exitDx=0;exitDy=0;entryX=0.5;entryY=0.394;entryDx=0;entryDy=0;entryPerimeter=0;" edge="1" parent="1" source="MD_AzahWhz3icd9ftFgT-51" target="MD_AzahWhz3icd9ftFgT-50">
          <mxGeometry x="35" y="10" width="50" height="50" as="geometry">
            <mxPoint x="450" y="540" as="sourcePoint" />
            <mxPoint x="500" y="490" as="targetPoint" />
            <Array as="points">
              <mxPoint x="360" y="360" />
            </Array>
          </mxGeometry>
        </mxCell>
        <mxCell id="MD_AzahWhz3icd9ftFgT-53" value="USER" style="text;html=1;align=center;verticalAlign=middle;resizable=0;points=[];autosize=1;strokeColor=none;" vertex="1" parent="1">
          <mxGeometry x="205" width="50" height="20" as="geometry" />
        </mxCell>
        <mxCell id="MD_AzahWhz3icd9ftFgT-55" value="YES" style="text;html=1;align=center;verticalAlign=middle;resizable=0;points=[];autosize=1;strokeColor=none;" vertex="1" parent="1">
          <mxGeometry x="590" y="270" width="40" height="20" as="geometry" />
        </mxCell>
        <mxCell id="MD_AzahWhz3icd9ftFgT-56" value="NO" style="text;html=1;align=center;verticalAlign=middle;resizable=0;points=[];autosize=1;strokeColor=none;" vertex="1" parent="1">
          <mxGeometry x="545" y="310" width="30" height="20" as="geometry" />
        </mxCell>
        <mxCell id="MD_AzahWhz3icd9ftFgT-57" value="" style="endArrow=classic;html=1;" edge="1" parent="1">
          <mxGeometry x="-11" y="286" width="50" height="50" as="geometry">
            <mxPoint x="47" y="387" as="sourcePoint" />
            <mxPoint x="47" y="404" as="targetPoint" />
          </mxGeometry>
        </mxCell>
        <mxCell id="MD_AzahWhz3icd9ftFgT-58" value="" style="endArrow=classic;html=1;" edge="1" parent="1">
          <mxGeometry x="145" y="284" width="50" height="50" as="geometry">
            <mxPoint x="203" y="385" as="sourcePoint" />
            <mxPoint x="203" y="402" as="targetPoint" />
          </mxGeometry>
        </mxCell>
        <mxCell id="MD_AzahWhz3icd9ftFgT-59" value="" style="endArrow=classic;html=1;" edge="1" parent="1">
          <mxGeometry x="274.5" y="286" width="50" height="50" as="geometry">
            <mxPoint x="332.5" y="387" as="sourcePoint" />
            <mxPoint x="332.5" y="404" as="targetPoint" />
          </mxGeometry>
        </mxCell>
        <mxCell id="MD_AzahWhz3icd9ftFgT-60" value="" style="endArrow=classic;html=1;" edge="1" parent="1">
          <mxGeometry x="426.5" y="286" width="50" height="50" as="geometry">
            <mxPoint x="484.5" y="387" as="sourcePoint" />
            <mxPoint x="484.5" y="404" as="targetPoint" />
          </mxGeometry>
        </mxCell>
        <mxCell id="MD_AzahWhz3icd9ftFgT-61" value="See Schedule" style="ellipse;whiteSpace=wrap;html=1;" vertex="1" parent="1">
          <mxGeometry x="20" y="400" width="66" height="33.25" as="geometry" />
        </mxCell>
        <mxCell id="MD_AzahWhz3icd9ftFgT-62" value="Can Request For Urgent Trip" style="ellipse;whiteSpace=wrap;html=1;" vertex="1" parent="1">
          <mxGeometry x="166" y="400" width="84" height="50" as="geometry" />
        </mxCell>
        <mxCell id="MD_AzahWhz3icd9ftFgT-63" value="Give Review About Service" style="ellipse;whiteSpace=wrap;html=1;" vertex="1" parent="1">
          <mxGeometry x="300" y="400" width="100" height="33.25" as="geometry" />
        </mxCell>
        <mxCell id="MD_AzahWhz3icd9ftFgT-64" value="View Account Info" style="ellipse;whiteSpace=wrap;html=1;" vertex="1" parent="1">
          <mxGeometry x="432" y="400" width="106" height="33.25" as="geometry" />
        </mxCell>
        <mxCell id="MD_AzahWhz3icd9ftFgT-65" value="" style="endArrow=classic;html=1;" edge="1" parent="1">
          <mxGeometry x="145" y="349" width="50" height="50" as="geometry">
            <mxPoint x="203" y="450" as="sourcePoint" />
            <mxPoint x="203" y="467" as="targetPoint" />
          </mxGeometry>
        </mxCell>
        <mxCell id="MD_AzahWhz3icd9ftFgT-66" value="Click at Need Urgent Trip" style="ellipse;whiteSpace=wrap;html=1;" vertex="1" parent="1">
          <mxGeometry x="160" y="470" width="84" height="50" as="geometry" />
        </mxCell>
        <mxCell id="MD_AzahWhz3icd9ftFgT-67" value="" style="endArrow=classic;html=1;" edge="1" parent="1">
          <mxGeometry x="143.5" y="419" width="50" height="50" as="geometry">
            <mxPoint x="201.5" y="520" as="sourcePoint" />
            <mxPoint x="201.5" y="537" as="targetPoint" />
          </mxGeometry>
        </mxCell>
        <mxCell id="MD_AzahWhz3icd9ftFgT-68" value="" style="shape=line;html=1;strokeWidth=6;rotation=1;" vertex="1" parent="1">
          <mxGeometry x="169" y="536" width="66" height="10" as="geometry" />
        </mxCell>
        <mxCell id="MD_AzahWhz3icd9ftFgT-69" value="" style="endArrow=classic;html=1;" edge="1" parent="1">
          <mxGeometry x="112" y="440" width="50" height="50" as="geometry">
            <mxPoint x="170" y="541" as="sourcePoint" />
            <mxPoint x="170" y="558" as="targetPoint" />
          </mxGeometry>
        </mxCell>
        <mxCell id="MD_AzahWhz3icd9ftFgT-70" value="" style="endArrow=classic;html=1;" edge="1" parent="1">
          <mxGeometry x="175.5" y="442" width="50" height="50" as="geometry">
            <mxPoint x="233.5" y="543" as="sourcePoint" />
            <mxPoint x="233.5" y="560" as="targetPoint" />
          </mxGeometry>
        </mxCell>
        <mxCell id="MD_AzahWhz3icd9ftFgT-71" value="&lt;font style=&quot;font-size: 10px&quot;&gt;Enter Time&lt;/font&gt;" style="ellipse;whiteSpace=wrap;html=1;" vertex="1" parent="1">
          <mxGeometry x="149" y="557" width="46" height="25" as="geometry" />
        </mxCell>
        <mxCell id="MD_AzahWhz3icd9ftFgT-72" value="&lt;font style=&quot;font-size: 10px&quot;&gt;Enter Location&lt;/font&gt;" style="ellipse;whiteSpace=wrap;html=1;" vertex="1" parent="1">
          <mxGeometry x="207" y="557.5" width="53" height="35.5" as="geometry" />
        </mxCell>
        <mxCell id="MD_AzahWhz3icd9ftFgT-73" value="" style="endArrow=classic;html=1;" edge="1" parent="1">
          <mxGeometry x="113.5" y="484" width="50" height="50" as="geometry">
            <mxPoint x="171.5" y="585" as="sourcePoint" />
            <mxPoint x="172" y="610" as="targetPoint" />
          </mxGeometry>
        </mxCell>
        <mxCell id="MD_AzahWhz3icd9ftFgT-74" value="" style="endArrow=classic;html=1;" edge="1" parent="1">
          <mxGeometry x="171.5" y="492" width="50" height="50" as="geometry">
            <mxPoint x="229.5" y="593" as="sourcePoint" />
            <mxPoint x="229.5" y="610" as="targetPoint" />
          </mxGeometry>
        </mxCell>
        <mxCell id="MD_AzahWhz3icd9ftFgT-75" value="" style="shape=line;html=1;strokeWidth=6;rotation=1;" vertex="1" parent="1">
          <mxGeometry x="169" y="610" width="66" height="10" as="geometry" />
        </mxCell>
        <mxCell id="MD_AzahWhz3icd9ftFgT-76" value="" style="endArrow=classic;html=1;" edge="1" parent="1">
          <mxGeometry x="146" y="515" width="50" height="50" as="geometry">
            <mxPoint x="204" y="616" as="sourcePoint" />
            <mxPoint x="204" y="633" as="targetPoint" />
          </mxGeometry>
        </mxCell>
        <mxCell id="MD_AzahWhz3icd9ftFgT-77" value="&lt;font style=&quot;font-size: 10px&quot;&gt;Enter Submit&lt;/font&gt;" style="ellipse;whiteSpace=wrap;html=1;" vertex="1" parent="1">
          <mxGeometry x="175.5" y="635" width="53" height="35.5" as="geometry" />
        </mxCell>
        <mxCell id="MD_AzahWhz3icd9ftFgT-78" value="" style="endArrow=classic;html=1;" edge="1" parent="1">
          <mxGeometry x="143.5" y="569.5" width="50" height="50" as="geometry">
            <mxPoint x="201.5" y="670.5" as="sourcePoint" />
            <mxPoint x="201.5" y="687.5" as="targetPoint" />
          </mxGeometry>
        </mxCell>
        <mxCell id="MD_AzahWhz3icd9ftFgT-79" value="&lt;font style=&quot;font-size: 10px&quot;&gt;Get Massage&lt;/font&gt;" style="ellipse;whiteSpace=wrap;html=1;" vertex="1" parent="1">
          <mxGeometry x="175.5" y="690" width="53" height="35.5" as="geometry" />
        </mxCell>
        <mxCell id="MD_AzahWhz3icd9ftFgT-80" value="" style="endArrow=classic;html=1;" edge="1" parent="1">
          <mxGeometry x="5" y="516.25" width="50" height="50" as="geometry">
            <mxPoint x="230" y="707.25" as="sourcePoint" />
            <mxPoint x="250" y="707.25" as="targetPoint" />
          </mxGeometry>
        </mxCell>
        <mxCell id="MD_AzahWhz3icd9ftFgT-81" value="" style="shape=line;html=1;strokeWidth=6;rotation=-90;" vertex="1" parent="1">
          <mxGeometry x="219.75" y="699" width="66" height="10" as="geometry" />
        </mxCell>
        <mxCell id="MD_AzahWhz3icd9ftFgT-82" value="" style="endArrow=classic;html=1;" edge="1" parent="1">
          <mxGeometry x="28" y="481.5" width="50" height="50" as="geometry">
            <mxPoint x="253" y="672.5" as="sourcePoint" />
            <mxPoint x="273" y="672.5" as="targetPoint" />
          </mxGeometry>
        </mxCell>
        <mxCell id="MD_AzahWhz3icd9ftFgT-83" value="" style="endArrow=classic;html=1;" edge="1" parent="1">
          <mxGeometry x="28" y="544" width="50" height="50" as="geometry">
            <mxPoint x="253" y="735" as="sourcePoint" />
            <mxPoint x="273" y="735" as="targetPoint" />
          </mxGeometry>
        </mxCell>
        <mxCell id="MD_AzahWhz3icd9ftFgT-84" value="&lt;font style=&quot;font-size: 10px&quot;&gt;Request Accepted&lt;/font&gt;" style="ellipse;whiteSpace=wrap;html=1;" vertex="1" parent="1">
          <mxGeometry x="273.5" y="654.5" width="66.5" height="35.5" as="geometry" />
        </mxCell>
        <mxCell id="MD_AzahWhz3icd9ftFgT-85" value="&lt;font style=&quot;font-size: 10px&quot;&gt;Request Not Accepted&lt;/font&gt;" style="ellipse;whiteSpace=wrap;html=1;" vertex="1" parent="1">
          <mxGeometry x="273.5" y="710" width="66.5" height="42" as="geometry" />
        </mxCell>
        <mxCell id="MD_AzahWhz3icd9ftFgT-86" value="" style="endArrow=classic;html=1;" edge="1" parent="1">
          <mxGeometry x="115" y="480.75" width="50" height="50" as="geometry">
            <mxPoint x="340" y="671.75" as="sourcePoint" />
            <mxPoint x="360" y="671.75" as="targetPoint" />
          </mxGeometry>
        </mxCell>
        <mxCell id="MD_AzahWhz3icd9ftFgT-88" value="" style="shape=line;html=1;strokeWidth=6;rotation=-90;" vertex="1" parent="1">
          <mxGeometry x="334" y="667.25" width="66" height="10" as="geometry" />
        </mxCell>
        <mxCell id="MD_AzahWhz3icd9ftFgT-89" value="" style="endArrow=classic;html=1;" edge="1" parent="1">
          <mxGeometry x="143" y="453.25" width="50" height="50" as="geometry">
            <mxPoint x="368" y="644.25" as="sourcePoint" />
            <mxPoint x="388" y="644.25" as="targetPoint" />
          </mxGeometry>
        </mxCell>
        <mxCell id="MD_AzahWhz3icd9ftFgT-90" value="" style="endArrow=classic;html=1;" edge="1" parent="1">
          <mxGeometry x="143" y="510" width="50" height="50" as="geometry">
            <mxPoint x="368" y="701" as="sourcePoint" />
            <mxPoint x="388" y="701" as="targetPoint" />
          </mxGeometry>
        </mxCell>
        <mxCell id="MD_AzahWhz3icd9ftFgT-91" value="&lt;font style=&quot;font-size: 10px&quot;&gt;Driver Name&lt;/font&gt;" style="ellipse;whiteSpace=wrap;html=1;" vertex="1" parent="1">
          <mxGeometry x="387.5" y="624" width="42.5" height="35.5" as="geometry" />
        </mxCell>
        <mxCell id="MD_AzahWhz3icd9ftFgT-92" value="&lt;font style=&quot;font-size: 10px&quot;&gt;Transport No&lt;/font&gt;" style="ellipse;whiteSpace=wrap;html=1;" vertex="1" parent="1">
          <mxGeometry x="387.5" y="684.25" width="52.5" height="32.75" as="geometry" />
        </mxCell>
        <mxCell id="MD_AzahWhz3icd9ftFgT-93" value="" style="endArrow=classic;html=1;" edge="1" parent="1">
          <mxGeometry x="205" y="450.25" width="50" height="50" as="geometry">
            <mxPoint x="430" y="641.25" as="sourcePoint" />
            <mxPoint x="460" y="641" as="targetPoint" />
          </mxGeometry>
        </mxCell>
        <mxCell id="MD_AzahWhz3icd9ftFgT-94" value="" style="endArrow=classic;html=1;" edge="1" parent="1">
          <mxGeometry x="215" y="508" width="50" height="50" as="geometry">
            <mxPoint x="440" y="699" as="sourcePoint" />
            <mxPoint x="460" y="699" as="targetPoint" />
          </mxGeometry>
        </mxCell>
        <mxCell id="MD_AzahWhz3icd9ftFgT-95" value="" style="shape=line;html=1;strokeWidth=6;rotation=-90;" vertex="1" parent="1">
          <mxGeometry x="430" y="667.25" width="66" height="10" as="geometry" />
        </mxCell>
        <mxCell id="MD_AzahWhz3icd9ftFgT-96" value="" style="endArrow=classic;html=1;exitX=0.458;exitY=0.64;exitDx=0;exitDy=0;exitPerimeter=0;" edge="1" parent="1" source="MD_AzahWhz3icd9ftFgT-95">
          <mxGeometry width="50" height="50" relative="1" as="geometry">
            <mxPoint x="390" y="740" as="sourcePoint" />
            <mxPoint x="480" y="910" as="targetPoint" />
            <Array as="points">
              <mxPoint x="480" y="675" />
            </Array>
          </mxGeometry>
        </mxCell>
        <mxCell id="MD_AzahWhz3icd9ftFgT-97" value="" style="endArrow=classic;html=1;exitX=1;exitY=0.5;exitDx=0;exitDy=0;" edge="1" parent="1" source="MD_AzahWhz3icd9ftFgT-85">
          <mxGeometry width="50" height="50" relative="1" as="geometry">
            <mxPoint x="390" y="840" as="sourcePoint" />
            <mxPoint x="470" y="910" as="targetPoint" />
            <Array as="points">
              <mxPoint x="470" y="731" />
            </Array>
          </mxGeometry>
        </mxCell>
        <mxCell id="MD_AzahWhz3icd9ftFgT-98" value="" style="endArrow=classic;html=1;" edge="1" parent="1">
          <mxGeometry width="50" height="50" relative="1" as="geometry">
            <mxPoint x="360" y="433" as="sourcePoint" />
            <mxPoint x="490" y="914" as="targetPoint" />
            <Array as="points">
              <mxPoint x="360" y="450" />
              <mxPoint x="490" y="450" />
            </Array>
          </mxGeometry>
        </mxCell>
        <mxCell id="MD_AzahWhz3icd9ftFgT-99" value="" style="endArrow=classic;html=1;exitX=0.623;exitY=0.902;exitDx=0;exitDy=0;exitPerimeter=0;entryX=0.5;entryY=0;entryDx=0;entryDy=0;" edge="1" parent="1" source="MD_AzahWhz3icd9ftFgT-64" target="MD_AzahWhz3icd9ftFgT-100">
          <mxGeometry width="50" height="50" relative="1" as="geometry">
            <mxPoint x="390" y="690" as="sourcePoint" />
            <mxPoint x="560" y="480" as="targetPoint" />
          </mxGeometry>
        </mxCell>
        <mxCell id="MD_AzahWhz3icd9ftFgT-100" value="Update Account Info" style="ellipse;whiteSpace=wrap;html=1;" vertex="1" parent="1">
          <mxGeometry x="496" y="478.38" width="53" height="51.62" as="geometry" />
        </mxCell>
        <mxCell id="MD_AzahWhz3icd9ftFgT-101" value="" style="endArrow=classic;html=1;exitX=0.5;exitY=1;exitDx=0;exitDy=0;" edge="1" parent="1" source="MD_AzahWhz3icd9ftFgT-100">
          <mxGeometry width="50" height="50" relative="1" as="geometry">
            <mxPoint x="390" y="690" as="sourcePoint" />
            <mxPoint x="534" y="910" as="targetPoint" />
          </mxGeometry>
        </mxCell>
        <mxCell id="MD_AzahWhz3icd9ftFgT-102" value="" style="endArrow=classic;html=1;exitX=0.382;exitY=1.005;exitDx=0;exitDy=0;exitPerimeter=0;" edge="1" parent="1" source="MD_AzahWhz3icd9ftFgT-61">
          <mxGeometry width="50" height="50" relative="1" as="geometry">
            <mxPoint x="390" y="690" as="sourcePoint" />
            <mxPoint x="45" y="900" as="targetPoint" />
          </mxGeometry>
        </mxCell>
        <mxCell id="MD_AzahWhz3icd9ftFgT-103" value="" style="endArrow=none;html=1;" edge="1" parent="1">
          <mxGeometry width="50" height="50" relative="1" as="geometry">
            <mxPoint x="552" y="10" as="sourcePoint" />
            <mxPoint x="552" y="910" as="targetPoint" />
          </mxGeometry>
        </mxCell>
      </root>
    </mxGraphModel>
  </diagram>
</mxfile>
